<svg width="200" height="200" viewBox="0 0 200 200" fill="none" xmlns="http://www.w3.org/2000/svg">
<rect width="200" height="200" rx="50" fill="black" fill-opacity="0.2"/>
<path d="M59.5527 135.853V134.896H59.6807C62.6674 134.896 65.0994 134.259 66.9767 132.984C68.9394 131.646 69.9207 129.925 69.9207 127.822V72.1784C69.7501 70.0113 68.7261 68.2904 66.8487 67.0157C65.0567 65.7409 62.6674 65.1035 59.6807 65.1035H59.5527V64.1475H97.5687C104.481 64.1475 110.454 64.8167 115.489 66.1552C120.609 67.4937 124.577 69.374 127.393 71.796C130.209 74.1543 131.617 76.9588 131.617 80.2094C131.617 83.9062 129.483 87.0931 125.217 89.7701C121.035 92.4471 115.531 94.1042 108.705 94.7416C115.019 94.9966 120.523 95.9526 125.217 97.6098C129.995 99.2033 133.707 101.37 136.353 104.111C139.083 106.852 140.449 110.039 140.449 113.672C140.449 118.006 138.742 121.862 135.329 125.24C132.001 128.555 127.265 131.168 121.121 133.08C114.977 134.928 107.723 135.853 99.3607 135.853H59.5527ZM89.6327 94.0724H97.5687C101.921 94.0724 105.419 92.7976 108.065 90.2481C110.795 87.6349 112.161 84.1611 112.161 79.827C112.161 75.4291 110.795 71.9235 108.065 69.3102C105.419 66.697 101.921 65.3903 97.5687 65.3903H89.6327V94.0724ZM99.3607 134.61C105.675 134.61 110.667 132.825 114.337 129.256C118.091 125.686 119.969 120.874 119.969 114.819C119.969 109.019 117.921 104.366 113.825 100.86C109.814 97.2911 104.395 95.5065 97.5687 95.5065H89.6327V127.822C89.6327 132.347 92.8754 134.61 99.3607 134.61Z" fill="#0078FE"/>
</svg>
